<svg width="80" height="71" viewBox="0 0 80 71" fill="none"
    xmlns="http://www.w3.org/2000/svg">
    <path d="M69.6296 8.875H60.1556L55.5556 1.97469C55.149 1.36629 54.5981 0.867656 53.952 0.523143C53.3058 0.178629 52.5844 -0.00107921 51.8518 4.87585e-06H28.1481C27.4156 -0.00107921 26.6942 0.178629 26.048 0.523143C25.4019 0.867656 24.851 1.36629 24.4444 1.97469L19.8407 8.875H10.3704C7.61998 8.875 4.98223 9.96589 3.03741 11.9077C1.09259 13.8495 0 16.4831 0 19.2292V60.6458C0 63.3919 1.09259 66.0256 3.03741 67.9673C4.98223 69.9091 7.61998 71 10.3704 71H69.6296C70.9915 71 72.34 70.7322 73.5982 70.2118C74.8564 69.6915 75.9996 68.9288 76.9626 67.9673C77.9256 67.0059 78.6894 65.8644 79.2106 64.6082C79.7318 63.352 80 62.0056 80 60.6458V19.2292C80 17.8694 79.7318 16.523 79.2106 15.2668C78.6894 14.0106 77.9256 12.8691 76.9626 11.9077C75.9996 10.9462 74.8564 10.1835 73.5982 9.66317C72.34 9.14282 70.9915 8.875 69.6296 8.875ZM71.1111 60.6458C71.1111 61.0381 70.955 61.4144 70.6772 61.6918C70.3994 61.9692 70.0225 62.125 69.6296 62.125H10.3704C9.97746 62.125 9.60064 61.9692 9.3228 61.6918C9.04497 61.4144 8.88889 61.0381 8.88889 60.6458V19.2292C8.88889 18.8369 9.04497 18.4606 9.3228 18.1832C9.60064 17.9058 9.97746 17.75 10.3704 17.75H22.2222C22.9547 17.7511 23.6762 17.5714 24.3223 17.2269C24.9685 16.8824 25.5194 16.3837 25.9259 15.7753L30.5259 8.875H49.4704L54.0741 15.7753C54.4806 16.3837 55.0315 16.8824 55.6777 17.2269C56.3238 17.5714 57.0453 17.7511 57.7778 17.75H69.6296C70.0225 17.75 70.3994 17.9058 70.6772 18.1832C70.955 18.4606 71.1111 18.8369 71.1111 19.2292V60.6458ZM40 20.7083C36.4839 20.7083 33.0467 21.7494 30.1232 23.6998C27.1997 25.6501 24.921 28.4223 23.5755 31.6657C22.2299 34.9091 21.8779 38.478 22.5638 41.9212C23.2498 45.3643 24.9429 48.5271 27.4292 51.0095C29.9155 53.4919 33.0832 55.1824 36.5317 55.8673C39.9803 56.5522 43.5548 56.2007 46.8033 54.8572C50.0517 53.5137 52.8282 51.2387 54.7817 48.3197C56.7351 45.4007 57.7778 41.969 57.7778 38.4583C57.7729 33.7522 55.8983 29.2403 52.5654 25.9126C49.2325 22.5849 44.7135 20.7132 40 20.7083ZM40 47.3333C38.2419 47.3333 36.5234 46.8128 35.0616 45.8376C33.5998 44.8624 32.4605 43.4763 31.7877 41.8546C31.115 40.233 30.9389 38.4485 31.2819 36.7269C31.6249 35.0053 32.4715 33.424 33.7146 32.1828C34.9577 30.9416 36.5416 30.0963 38.2659 29.7539C39.9901 29.4114 41.7774 29.5872 43.4016 30.2589C45.0259 30.9306 46.4141 32.0682 47.3908 33.5276C48.3676 34.9871 48.8889 36.703 48.8889 38.4583C48.8889 40.8121 47.9524 43.0695 46.2854 44.7339C44.6184 46.3983 42.3575 47.3333 40 47.3333Z" fill="white"/>
</svg>
