<svg width="80" height="71" viewBox="0 0 80 71" fill="none"
    xmlns="http://www.w3.org/2000/svg">
    <path d="M45.9259 23.1522C45.9259 21.9311 46.2735 20.7374 46.9246 19.7221C47.5758 18.7068 48.5013 17.9155 49.5841 17.4482C50.6669 16.9809 51.8584 16.8587 53.0079 17.0969C54.1575 17.3351 55.2134 17.9231 56.0421 18.7866C56.8709 19.65 57.4353 20.7501 57.6639 21.9477C57.8926 23.1453 57.7752 24.3867 57.3267 25.5148C56.8782 26.643 56.1186 27.6072 55.1441 28.2856C54.1696 28.964 53.0239 29.3261 51.8518 29.3261C50.2802 29.3261 48.7729 28.6756 47.6616 27.5178C46.5503 26.36 45.9259 24.7896 45.9259 23.1522ZM80 7.71739V63.2826C80 65.3294 79.2196 67.2923 77.8304 68.7396C76.4413 70.1869 74.5572 71 72.5926 71H7.40741C5.44284 71 3.55874 70.1869 2.16958 68.7396C0.780421 67.2923 0 65.3294 0 63.2826V7.71739C0 5.67061 0.780421 3.70766 2.16958 2.26037C3.55874 0.81308 5.44284 0 7.40741 0H72.5926C74.5572 0 76.4413 0.81308 77.8304 2.26037C79.2196 3.70766 80 5.67061 80 7.71739ZM8.88889 9.26087V40.0224L21.4296 26.9568C22.8187 25.5101 24.7025 24.6973 26.6667 24.6973C28.6308 24.6973 30.5146 25.5101 31.9037 26.9568L47.1518 42.8315L53.5148 36.2061C54.9039 34.7594 56.7877 33.9466 58.7519 33.9466C60.716 33.9466 62.5998 34.7594 63.9889 36.2061L71.1111 43.638V9.26087H8.88889ZM8.88889 61.7391H52.7185L26.6667 34.5971L8.88889 53.1188V61.7391ZM71.1111 61.7391V56.7228L58.7519 43.8464L53.437 49.3913L65.2889 61.7391H71.1111Z" fill="white"/>
</svg>
