<svg width="20" height="20" viewBox="0 0 20 20" fill="none" xmlns="http://www.w3.org/2000/svg">
<path fill-rule="evenodd" clip-rule="evenodd" d="M10 20C15.544 20 20 15.544 20 10C20 4.456 15.544 0 10 0C4.456 0 0 4.456 0 10C0 15.544 4.456 20 10 20ZM12.75 11.58C12.75 10.124 11.875 9.624 10.125 9.418C8.875 9.25 8.625 8.918 8.625 8.331C8.625 7.749 9.045 7.375 9.875 7.375C10.625 7.375 11.045 7.625 11.25 8.249C11.2726 8.30898 11.3128 8.36079 11.3652 8.3977C11.4176 8.43461 11.4799 8.45492 11.544 8.456H12.207C12.2454 8.45722 12.2836 8.45064 12.3194 8.43667C12.3552 8.42269 12.3877 8.4016 12.4151 8.37468C12.4425 8.34776 12.4641 8.31556 12.4787 8.28004C12.4933 8.24451 12.5006 8.2064 12.5 8.168V8.124C12.332 7.206 11.582 6.331 10.625 6.249V5.331C10.625 5.162 10.5 5.037 10.295 4.999H9.745C9.575 4.999 9.419 5.124 9.375 5.331V6.249C8.125 6.419 7.295 7.375 7.295 8.419C7.295 9.793 8.125 10.331 9.875 10.543C11.045 10.749 11.419 11 11.419 11.668C11.419 12.331 10.832 12.793 10.044 12.793C8.957 12.793 8.582 12.331 8.457 11.706C8.419 11.543 8.294 11.456 8.169 11.456H7.457C7.4186 11.4554 7.38049 11.4627 7.34496 11.4773C7.30944 11.4919 7.27724 11.5135 7.25032 11.5409C7.2234 11.5683 7.20231 11.6008 7.18833 11.6366C7.17436 11.6724 7.16778 11.7106 7.169 11.749V11.793C7.332 12.831 8 13.543 9.376 13.75V14.674C9.376 14.844 9.501 14.956 9.706 14.999H10.306C10.469 14.999 10.582 14.887 10.626 14.674V13.749C11.876 13.543 12.75 12.706 12.75 11.581M5.792 14.695C6.39607 15.2492 7.10406 15.6782 7.875 15.957C8 16.044 8.125 16.207 8.125 16.332V16.919C8.125 17 8.125 17.044 8.082 17.082C8.044 17.25 7.875 17.332 7.707 17.25C6.19059 16.7672 4.86706 15.8145 3.92785 14.5298C2.98864 13.2451 2.48242 11.6949 2.48242 10.1035C2.48242 8.51208 2.98864 6.96191 3.92785 5.6772C4.86706 4.39248 6.19059 3.43982 7.707 2.957C7.75 2.919 7.832 2.919 7.875 2.919C8.045 2.957 8.125 3.082 8.125 3.25V3.832C8.125 4.044 8.045 4.169 7.875 4.25C7.02301 4.55793 6.24927 5.0497 5.60877 5.69038C4.96826 6.33106 4.4767 7.10492 4.169 7.957C3.73917 9.11423 3.66399 10.3733 3.95308 11.5735C4.24216 12.7736 4.88239 13.8604 5.792 14.695ZM11.919 3.125C11.957 2.957 12.125 2.875 12.294 2.957C13.4396 3.3291 14.4797 3.96956 15.3277 4.82502C16.1757 5.68047 16.807 6.72617 17.169 7.875C18.419 11.832 16.25 16.044 12.294 17.294C12.25 17.332 12.169 17.332 12.125 17.332C11.957 17.294 11.875 17.169 11.875 17V16.42C11.875 16.207 11.957 16.082 12.125 16C13.832 15.375 15.207 14.044 15.832 12.294C16.1178 11.5256 16.2485 10.7082 16.2167 9.88902C16.1848 9.06983 15.9909 8.26507 15.6462 7.52122C15.3015 6.77738 14.8129 6.10921 14.2085 5.55529C13.6041 5.00137 12.896 4.57269 12.125 4.294C12 4.207 11.875 4.044 11.875 3.875V3.295C11.875 3.207 11.875 3.169 11.919 3.125Z" fill="#2775CA"/>
</svg>
