<svg width="39" height="39" viewBox="0 0 39 39" fill="none" xmlns="http://www.w3.org/2000/svg">
<path fill-rule="evenodd" clip-rule="evenodd" d="M19.5 0C30.2698 0 39 8.73014 39 19.5C39.0067 23.9915 37.4564 28.3463 34.6136 31.823C34.604 31.8348 34.6044 31.8518 34.6146 31.863C34.6262 31.8758 34.625 31.8956 34.6118 31.9068L34.3976 32.0886C34.3849 32.0994 34.3731 32.1112 34.3623 32.1239C32.5362 34.2778 30.2632 36.0086 27.701 37.196C25.1312 38.3869 22.3324 39.0026 19.5 39C13.7475 39 8.58001 36.5098 5.01151 32.5513L4.63786 32.1216C4.62698 32.1091 4.61511 32.0975 4.60237 32.0869L4.38974 31.9097C4.37559 31.8979 4.37367 31.8768 4.38547 31.8627C4.39571 31.8504 4.39576 31.8326 4.38563 31.8202C1.54373 28.3441 -0.00623173 23.9905 1.88313e-05 19.5C1.88313e-05 8.73014 8.73016 0 19.5 0ZM19.5 29.25C14.7052 29.25 14.5566 35.0602 19.3512 35.0995C19.4008 35.0999 19.4504 35.1 19.5 35.1C19.5499 35.1 19.5998 35.0999 19.6497 35.0994C24.4292 35.06 24.2797 29.2543 19.5 29.25ZM19.5 3.9C16.5643 3.89991 13.6882 4.72819 11.2022 6.28962C8.71623 7.85105 6.72128 10.0823 5.44668 12.7268C4.17207 15.3713 3.66953 18.3219 3.99683 21.2392C4.5433 26.1102 10.4691 26.7567 15.2719 25.778C16.6275 25.5017 18.0441 25.35 19.5 25.35C20.9559 25.35 22.3725 25.5017 23.7281 25.778C28.5309 26.7567 34.4567 26.1102 35.0032 21.2392C35.3305 18.3219 34.8279 15.3713 33.5533 12.7268C32.2787 10.0823 30.2838 7.85105 27.7978 6.28962C25.3118 4.72819 22.4357 3.89991 19.5 3.9ZM19.5 7.79999C21.5687 7.79999 23.5526 8.62177 25.0154 10.0846C26.4782 11.5473 27.3 13.5313 27.3 15.6C27.3 17.6687 26.4782 19.6526 25.0154 21.1154C23.5526 22.5782 21.5687 23.4 19.5 23.4C17.4313 23.4 15.4474 22.5782 13.9846 21.1154C12.5218 19.6526 11.7 17.6687 11.7 15.6C11.7 13.5313 12.5218 11.5473 13.9846 10.0846C15.4474 8.62177 17.4313 7.79999 19.5 7.79999ZM19.5 11.7C18.4657 11.7 17.4737 12.1109 16.7423 12.8423C16.0109 13.5737 15.6 14.5656 15.6 15.6C15.6 16.6343 16.0109 17.6263 16.7423 18.3577C17.4737 19.0891 18.4657 19.5 19.5 19.5C20.5343 19.5 21.5263 19.0891 22.2577 18.3577C22.9891 17.6263 23.4 16.6343 23.4 15.6C23.4 14.5656 22.9891 13.5737 22.2577 12.8423C21.5263 12.1109 20.5343 11.7 19.5 11.7Z" fill="white"/>
</svg>
